<svg xmlns="http://www.w3.org/2000/svg" width="600" height="300" viewBox="0 0 600 300">
  <rect width="600" height="300" rx="8" fill="#1a1a2e"/>
  <rect x="50" y="40" width="200" height="200" rx="4" fill="#0d1117" stroke="#44cc11" stroke-width="1"/>
  <rect x="60" y="50" width="80" height="80" rx="2" fill="#44cc11" opacity="0.2"/>
  <text x="100" y="100" text-anchor="middle" fill="#44cc11" font-family="monospace" font-size="20">IMG</text>
  <text x="155" y="95" text-anchor="middle" fill="#e6edf3" font-family="monospace" font-size="24">→</text>
  <rect x="170" y="50" width="70" height="80" rx="2" fill="#44cc11" opacity="0.3"/>
  <text x="205" y="95" text-anchor="middle" fill="#44cc11" font-family="monospace" font-size="10">3D</text>
  <rect x="60" y="140" width="180" height="20" rx="2" fill="#333355"/>
  <rect x="60" y="140" width="120" height="20" rx="2" fill="#44cc11" opacity="0.4"/>
  <text x="150" y="154" text-anchor="middle" fill="#888" font-family="monospace" font-size="7">Height Map Generation</text>
  <rect x="60" y="165" width="180" height="20" rx="2" fill="#333355"/>
  <rect x="60" y="165" width="160" height="20" rx="2" fill="#44cc11" opacity="0.3"/>
  <text x="150" y="179" text-anchor="middle" fill="#888" font-family="monospace" font-size="7">STL Mesh Export</text>
  <rect x="60" y="190" width="180" height="20" rx="2" fill="#333355"/>
  <rect x="60" y="190" width="100" height="20" rx="2" fill="#44cc11" opacity="0.2"/>
  <text x="150" y="204" text-anchor="middle" fill="#888" font-family="monospace" font-size="7">Batch Processing</text>
  <text x="420" y="80" text-anchor="middle" fill="#e6edf3" font-family="monospace" font-size="28" font-weight="bold">Image2STL</text>
  <text x="420" y="110" text-anchor="middle" fill="#44cc11" font-family="monospace" font-size="12">Images → 3D Printable Models</text>
  <text x="420" y="150" text-anchor="middle" fill="#888" font-family="monospace" font-size="10">GUI &amp; CLI interface</text>
  <text x="420" y="170" text-anchor="middle" fill="#888" font-family="monospace" font-size="10">4 height map modes</text>
  <text x="420" y="190" text-anchor="middle" fill="#888" font-family="monospace" font-size="10">Batch conversion &amp; previews</text>
  <text x="420" y="210" text-anchor="middle" fill="#888" font-family="monospace" font-size="10">Watertight mesh output</text>
  <line x1="340" y1="235" x2="500" y2="235" stroke="#44cc11" stroke-width="1" opacity="0.3"/>
  <text x="420" y="260" text-anchor="middle" fill="#44cc11" font-family="monospace" font-size="9" opacity="0.6">Python | Pillow | NumPy | Trimesh</text>
</svg>
